# xmcd
#
# Track frame offsets:
#	150
#	10284
#	32153
#	49893
#	69526
#	85353
#	104640
#	115218
#	128338
#	143231
#	164863
#	183280
#	198733
#	209333
#	226414
#	242636
#	248502
#	267994
#	278949
#
# Disc length: 4024 seconds
#
# Revision: 0
# Processed by: cddbd v1.5.1PL0 Copyright (c) Steve Scherf et al.
# Submitted via: dBpowerAMP V4.0
#
DISCID=1c0fb613
DTITLE=Glen Ohrlin - A Cowboy's Life
DYEAR=1900
DGENRE=Country
TTITLE0=Desert Sands
TTITLE1=Platonia, the Pride of the Plains
TTITLE2=Shorty's Saloon
TTITLE3=Cowboy Again for a Day
TTITLE4=Cancion Mixtera
TTITLE5=Fair Lady of the Plains
TTITLE6=Night Herding Song
TTITLE7=A Cowboy's Life
TTITLE8=Texas Cowboy
TTITLE9=Ace in the Hole
TTITLE10=Barnacle Bill, the Sailor
TTITLE11=A Spanish Cavalier
TTITLE12=Button Willow Tree
TTITLE13=My Bonny Black Bess
TTITLE14=Long Side the Santa Fe Trail
TTITLE15=Comitan de Las Flores
TTITLE16=El Corrido de Kansas
TTITLE17=Reincarnation
TTITLE18=The Hell Bound Train
EXTD=
EXTT0=
EXTT1=
EXTT2=
EXTT3=
EXTT4=
EXTT5=
EXTT6=
EXTT7=
EXTT8=
EXTT9=
EXTT10=
EXTT11=
EXTT12=
EXTT13=
EXTT14=
EXTT15=
EXTT16=
EXTT17=
EXTT18=
PLAYORDER=
